<?xml version="1.0" standalone="no"?>
<!DOCTYPE svg PUBLIC "-//W3C//DTD SVG 20010904//EN"
 "http://www.w3.org/TR/2001/REC-SVG-20010904/DTD/svg10.dtd">
<svg version="1.0" xmlns="http://www.w3.org/2000/svg"
 width="307.000000pt" height="309.000000pt" viewBox="0 0 307.000000 309.000000"
 preserveAspectRatio="xMidYMid meet">
<metadata>
Created by potrace 1.16, written by Peter Selinger 2001-2019
</metadata>
<g transform="translate(0.000000,309.000000) scale(0.100000,-0.100000)"
fill="#86123E" stroke="none">
<path d="M1305 2964 c-316 -58 -571 -196 -791 -427 -190 -199 -327 -461 -381
-732 -28 -141 -25 -427 5 -564 124 -553 543 -985 1077 -1109 340 -79 674 -37
986 125 139 72 255 160 371 282 202 212 333 474 383 765 20 115 20 347 0 462
-32 186 -126 425 -226 572 -217 317 -531 533 -902 618 -103 23 -415 28 -522 8z
m551 -47 c265 -67 472 -184 664 -377 243 -243 387 -546 420 -889 38 -378 -108
-796 -378 -1083 -547 -581 -1443 -596 -2006 -32 -196 195 -330 441 -391 719
-26 114 -31 372 -11 496 93 564 504 1019 1047 1160 134 34 174 38 369 34 157
-3 200 -7 286 -28z M1407 2633 c-12 -19 4 -184 17 -180 7 2 10 28 7 73 l-3 69
42 -48 c24 -27 51 -58 61 -70 28 -35 37 -11 32 81 -4 64 -9 82 -20 82 -13 0
-14 -11 -8 -66 l7 -66 -64 68 c-39 41 -67 63 -71 57z M1844 2563 c-9 -21 -24
-58 -35 -82 -23 -52 -22 -51 -6 -51 7 0 24 26 38 58 l26 57 25 -80 c14 -46 30
-80 38 -80 11 0 70 133 70 158 0 25 -25 -6 -42 -51 -18 -47 -38 -69 -38 -41 0
27 -42 149 -51 149 -5 0 -17 -17 -25 -37z M1107 2554 c-5 -6 7 -42 48 -138 10
-24 20 -35 26 -29 6 6 -2 37 -21 84 -32 78 -42 93 -53 83z M838 2395 c-3 -3 1
-33 9 -66 8 -34 13 -63 11 -65 -2 -1 -29 5 -61 13 -85 24 -88 9 -12 -67 72
-71 98 -75 41 -6 -43 53 -44 59 -10 46 14 -6 37 -10 50 -10 23 0 25 3 19 33
-4 17 -9 40 -11 50 -9 28 8 20 46 -25 22 -25 41 -39 48 -34 8 5 -7 28 -45 72
-54 60 -72 72 -85 59z M2187 2322 c-52 -53 -70 -82 -49 -82 5 0 17 9 27 20 33
37 50 22 50 -44 0 -38 4 -61 13 -63 9 -4 12 13 12 61 l0 66 56 0 c34 0 53 4
49 10 -3 6 -35 10 -71 10 -35 0 -64 4 -64 8 0 5 11 19 25 32 25 23 32 40 17
40 -4 0 -33 -26 -65 -58z M1517 2154 c-11 -11 -8 -172 3 -179 17 -10 25 26 24
98 -2 65 -12 96 -27 81z M1316 2032 c-5 -9 62 -102 75 -102 16 0 9 17 -26 64
-38 48 -41 51 -49 38z M1710 2013 c-53 -58 -61 -71 -51 -77 11 -7 84 79 79 94
-2 6 -15 -2 -28 -17z M1790 1741 l-235 -170 -5 122 -5 122 -25 0 -25 0 -5
-136 -5 -137 -200 164 c-110 90 -206 167 -212 170 -7 3 -20 4 -28 0 -13 -5
-15 -51 -13 -358 3 -345 3 -353 23 -353 19 0 20 8 25 317 l5 316 200 -162 200
-161 3 -147 c2 -114 6 -149 17 -158 12 -10 18 -10 30 0 11 9 15 45 17 170 l3
158 239 -164 c132 -90 245 -163 250 -161 6 2 12 12 13 23 2 15 -50 55 -228
178 -221 152 -230 159 -212 176 10 9 110 84 223 165 113 82 208 153 212 159 7
10 -8 36 -21 36 -4 0 -112 -76 -241 -169z M1347 1020 c-20 -27 -33 -51 -28
-54 10 -7 81 74 81 93 0 21 -15 10 -53 -39z M1656 1061 c-7 -10 60 -101 74
-101 16 0 12 10 -26 61 -38 52 -40 54 -48 40z M1512 933 c2 -58 7 -88 16 -91
9 -3 12 19 12 87 0 75 -3 91 -15 91 -13 0 -15 -14 -13 -87z M2283 942 c-72
-56 -32 -162 61 -162 43 0 86 46 86 92 0 68 -93 113 -147 70z m80 -13 c67 -30
45 -129 -28 -129 -23 0 -65 45 -65 70 0 21 41 70 59 70 6 0 21 -5 34 -11z
M744 905 c-15 -23 -15 -27 5 -60 26 -45 27 -65 2 -65 -23 0 -47 22 -56 50 -8
26 -25 26 -25 -1 0 -26 52 -79 77 -79 44 0 56 47 26 99 -15 24 -15 33 -5 43
16 16 42 1 60 -36 15 -30 33 -27 25 4 -6 24 -58 70 -79 70 -7 0 -21 -11 -30
-25z M1020 716 c0 -8 9 -18 20 -21 27 -8 26 -14 -15 -89 -21 -37 -32 -67 -26
-70 5 -4 22 15 37 41 56 99 52 95 78 78 15 -10 26 -12 30 -6 7 10 -4 18 -77
59 -45 26 -47 26 -47 8z M2040 714 c0 -11 80 -143 91 -149 24 -15 13 20 -24
80 -37 61 -67 91 -67 69z M1331 550 c-20 -91 -11 -121 39 -139 33 -11 68 -3
87 20 12 16 33 130 26 142 -10 17 -22 -7 -29 -59 -7 -61 -23 -84 -58 -84 -39
0 -49 23 -42 94 8 79 -8 96 -23 26z M1735 593 c-11 -3 -24 -8 -28 -13 -8 -7
25 -155 37 -167 3 -3 26 0 51 7 51 14 85 49 85 87 0 31 -25 79 -45 87 -18 7
-69 6 -100 -1z m95 -33 c20 -20 26 -65 12 -86 -10 -15 -47 -34 -66 -34 -9 0
-19 15 -25 38 -24 92 -24 90 1 95 46 9 58 7 78 -13z"/>
</g>
</svg>
